<?xml version="1.0" encoding="utf-8"?>
<!-- Generator: Adobe Illustrator 16.0.0, SVG Export Plug-In . SVG Version: 6.00 Build 0)  -->
<!DOCTYPE svg PUBLIC "-//W3C//DTD SVG 1.1//EN" "http://www.w3.org/Graphics/SVG/1.1/DTD/svg11.dtd">
<svg version="1.1" id="Capa_1" xmlns="http://www.w3.org/2000/svg" xmlns:xlink="http://www.w3.org/1999/xlink" x="0px" y="0px"
	 width="245px" height="78px" viewBox="0 0 245 78" enable-background="new 0 0 245 78" xml:space="preserve">
<g>
	<path fill-rule="evenodd" clip-rule="evenodd" fill="#FFFFFF" d="M62.45703,9.26074c0,3.13672-2.54688,5.68701-5.6875,5.68701
		c-3.14502,0-5.69092-2.55029-5.69092-5.68701c0-3.14551,2.5459-5.69531,5.69092-5.69531
		C59.91016,3.56543,62.45703,6.11523,62.45703,9.26074"/>
	<path fill-rule="evenodd" clip-rule="evenodd" fill="#FFFFFF" d="M54.9043,29.04346
		c0.43604,0.86426,0.64453,3.16357,0.64453,6.89453v16.36768c0,3.07227-0.39258,5.10938-1.18555,6.04785
		c-0.67188,0.80859-1.98242,1.26953-3.92041,1.39551v2.34473h17.13281v-2.35449c-1.90625-0.13574-3.2041-0.59375-3.87549-1.39551
		c-0.8291-0.94629-1.23438-2.97363-1.23438-6.03809V19.58008l-12.4873,5.01074v0.56787l1.9292,0.93848
		C54.36865,27.23193,54.47607,28.19678,54.9043,29.04346"/>
	<path fill-rule="evenodd" clip-rule="evenodd" fill="#FFFFFF" d="M123.74609,29.04346
		c0.4375,0.86426,0.64551,3.16357,0.64551,6.89453v16.36768c0,3.07227-0.3916,5.10938-1.18555,6.04785
		c-0.67773,0.80859-1.9873,1.26953-3.92041,1.39551v2.34473h17.13232v-2.35449c-1.90723-0.13574-3.2041-0.59375-3.87402-1.39551
		c-0.8291-0.94629-1.23633-2.97363-1.23633-6.03809V19.58008l-12.48633,5.01074v0.56787l1.92969,0.93848
		C123.20996,27.23193,123.31836,28.19678,123.74609,29.04346"/>
	<path fill-rule="evenodd" clip-rule="evenodd" fill="#FFFFFF" d="M43.64258,52.46582
		c-0.46436,1.54297-1.09082,2.88379-1.92383,3.98438c-0.90186,1.21777-2.91113,1.80371-6.04688,1.80371h-1.8667
		c-5.24463,0-9.52197-0.42383-11.38672-1.2793c-1.86572-0.87695-2.78955-2.52539-2.78955-4.96777v-37.5459
		c0-3.0459,0.40479-5.04736,1.19873-5.99316c0.62598-0.73047,1.78857-1.18066,3.4873-1.35156V4.80859H7.18262v2.28906
		c1.8291,0.13574,3.09082,0.59473,3.75391,1.37012c0.80225,0.9458,1.19873,2.94727,1.19873,5.99316v37.5459
		c0,3.0459-0.39648,5.04785-1.18115,5.98633c-0.65332,0.79199-1.91602,1.24219-3.77148,1.37891v2.72168h38.74902l0.15381-1.46973
		l0.80615-8.1582H43.64258z"/>
	<path fill-rule="evenodd" clip-rule="evenodd" fill="#FFFFFF" d="M181.26367,55.59375
		c-4.5957,2.0918-8.56543,3.15527-13.2832,3.15527c-6.01953,0-11.48242-2.14453-15.97559-7.05664
		c-3.99609-4.36426-6.15137-10.40039-6.15137-17.20508c0-0.43262,0.01562-1.23486,0.04688-2.37061l38.92578-0.0625v-1.60547
		c0-8.11084-1.89355-14.42822-5.71387-18.97119c-3.84961-4.52441-9.22559-6.83154-16.12012-6.75879
		c-7.55273,0.08008-12.77539,2.63184-17.87793,8.20117c-5.09082,5.58789-7.63672,12.57324-7.63672,20.99902
		c0,8.53516,2.61328,15.56543,7.94824,21.05371c5.37793,5.50684,11.14453,7.86914,19.38281,7.86914
		c5.7627,0,10.84961-0.91309,16.45508-3.93066V55.59375z M151.44238,13.69531c3.0791-3.8667,6.87695-5.82275,11.36426-5.82275
		c3.6416,0,6.6748,1.38818,8.99512,4.17285c2.32031,2.76758,3.47852,6.30908,3.47852,10.71631
		c0,2.86523-1.18066,4.73975-3.0918,5.50684c-2.30566,0.9375-7.37695,1.25293-15.36035,1.25293h-10.89258
		C146.59277,22.92432,148.35547,17.56982,151.44238,13.69531"/>
	<path fill-rule="evenodd" clip-rule="evenodd" fill="#FFFFFF" d="M236.30469,60.41504
		c-1.2793-0.43164-2.43359-1.08887-3.3252-1.87305c-5.87695-4.93066-10.46289-11.84277-17.36816-23.00049
		c-0.44238-0.68457-0.88281-1.56787-0.44238-2.08154c4.32715-1.73096,10.80664-6.22803,10.80664-14.43848
		c0-4.70459-1.30566-8.04834-3.83887-10.31006c-0.44238-0.45068-0.92773-0.84766-1.46777-1.19824
		c-0.2998-0.1626-0.61328-0.34375-0.95508-0.49658c-0.0293-0.01855-0.0293-0.02734-0.0293-0.02734
		c-0.02539-0.0083-0.04492-0.02686-0.06348-0.03613c-0.17969-0.07227-0.38574-0.16211-0.59473-0.25146
		c-0.99023-0.44238-2.11719-0.7666-3.32422-0.99219c-2.54297-0.53125-5.66992-0.81104-9.46387-0.81104h-19.72852v2.40625
		c1.89258,0.13525,3.19922,0.57666,3.84082,1.34326c0.80078,0.94678,1.20703,2.91992,1.20703,5.93018v37.87012
		c0,3.01172-0.40625,5.00488-1.20703,5.92969c-0.6416,0.75781-1.94824,1.20898-3.83105,1.35352v2.39844h17.13281v-2.43457
		c-1.6416-0.16992-2.77539-0.62207-3.38965-1.3418c-0.80176-0.93066-1.21484-2.91113-1.21484-5.90527V34.9834h5.94727
		c1.95508,0.66553,2.86523,2.21582,3.875,3.6582c2.66797,3.90234,6.20898,9.85938,8.46289,13.05859
		c6.13867,8.73535,10.55371,10.90625,17.89844,10.90625c0.37891,0,0.73047-0.00977,1.07324-0.02734V60.41504z M207.24902,32.63037
		h-8.20117V7.25146h3.12598c5.22656,0,9.0127,0.85596,11.375,2.57715c2.36035,1.70361,3.55078,4.44336,3.55078,8.23779
		c0,3.65869-0.86621,6.75879-2.56836,9.30957C212.7998,29.90771,210.36719,31.68359,207.24902,32.63037"/>
	<path fill-rule="evenodd" clip-rule="evenodd" fill="#FFFFFF" d="M130.60645,5.52051
		c-1.77344-2.88379-5.54199-3.7583-9.34717-3.7583c-4.22656,0-9.50928,2.08203-12.47852,5.04785
		c0,0-1.16211,0.99951-2.49121,2.45068c-4.15576-3.1543-8.22852-4.48828-13.56006-4.48828
		c-9.94873,0-20.28271,4.5791-20.28271,16.05176c0,4.48779,1.38379,9.16553,5.03369,12.11279
		c1.37939,1.19922,3.63086,2.85742,6.97168,4.46973l-6.45361,3.38818c-0.29297,0.14453-0.59473,0.28906-0.91895,0.45117
		c-3.83545,1.96582-4.55176,2.56934-4.38477,4.37207c0.18066,1.95703,7.20508,6.97656,7.20508,7.8584
		c0,0.84668-9.23291,3.51562-9.23291,11.43652C70.66699,75.17969,82.32861,78,88.98047,78
		c14.35693,0,26.12744-7.41797,26.12744-16.79102c0-8.93164-5.11816-13.73633-20.22363-13.73633
		c-2.95654,0-5.38086,0.2168-8.19238,0.2168c-2.43896,0-6.73242-0.02637-6.45361-2.82129
		c0.2251-2.27051,4.07812-4.24512,12.37061-7.00098h0.2959c12.17285,0,19.70312-7.63428,19.70312-15.01514
		c0-3.56055-0.9292-6.5791-2.22607-9.21045c0.45361-1.18164,1.21533-2.64941,2.44043-4.12793
		c2.90771-3.26318,5.53076-4.5249,8.03174-4.99365c-1.24414,1.18066-2.01904,2.84814-2.01904,4.68652
		c0,3.55127,2.88428,6.44336,6.43652,6.44336c3.02246,0,5.54492-2.08984,6.24805-4.88379
		c0.14453-0.42383,0.23535-0.84717,0.23535-1.28027C131.75488,8.20605,131.47559,6.56641,130.60645,5.52051 M83.34766,54.66602
		c1.03223-0.45898,5.63281-0.86621,10.5083-0.86621c7.93555,0,14.10059,1.29102,14.10059,8.2832
		c0,8.17383-6.53857,13.31348-16.1499,13.31348c-8.18799,0-13.95557-4.37305-13.95557-11.45605
		C77.85107,60.99219,79.50781,56.4043,83.34766,54.66602 M101.9585,29.50439c-1.83838,3.09814-5.07471,4.96436-9.98535,4.96436
		c-8.35449,0-11.88818-5.35303-11.88818-13.13135c0-7.80469,3.53369-13.25732,11.88818-13.25732
		c5.10986,0,8.39941,2.05469,10.20215,5.39844c1.39258,2.07422,2.05908,4.78613,2.05908,7.89502
		C104.23438,24.63623,103.52197,27.41211,101.9585,29.50439"/>
</g>
<rect x="-101.625" y="-231" fill="none" width="447.97754" height="540.15039"/>
<rect x="-101.625" y="-231" fill="none" width="447.97754" height="540.15039"/>
</svg>
